<svg xmlns="http://www.w3.org/2000/svg" viewBox="0 0 290.03 136.79"><defs><style>.cls-1{fill:#3c3c3b;}.cls-2{fill:#aa0a2f;}.cls-3{fill:#d0043c;}.cls-4{fill:#bd2b0b;}.cls-5{fill:#a50343;}.cls-6{fill:#e84427;}.cls-7{fill:#c10a27;}.cls-8{fill:#c4014b;}</style></defs><title>Vins de Gaillac</title><g id="texte"><path class="cls-1" d="M244,216.51h-9.12v-6.66a19.16,19.16,0,0,1-15.81,7.41,17.62,17.62,0,0,1-12.29-4.41c-3.24-2.93-4.87-6.86-4.87-11.76s1.73-8.58,5.18-11,8.14-3.66,14-3.66h13v-1.87q0-9.94-10.54-9.94-6.62,0-13.76,5.06l-4.47-6.56A29.82,29.82,0,0,1,225,165.88q8.4,0,13.72,4.45t5.32,14ZM234,198v-4.22H222.74q-10.81,0-10.81,7.12a6.43,6.43,0,0,0,2.68,5.58c1.79,1.28,4.27,1.92,7.46,1.92a13.06,13.06,0,0,0,8.35-2.81A9.15,9.15,0,0,0,234,198Z" transform="translate(-134.9 -141.76)"/><path class="cls-1" d="M258.57,156.69a6.79,6.79,0,0,1,0-9.38,6,6,0,0,1,8.93,0,6.79,6.79,0,0,1,0,9.38,6,6,0,0,1-8.93,0ZM268,216.51h-10V166.63h10Z" transform="translate(-134.9 -141.76)"/><path class="cls-1" d="M292.43,216.51h-10V146.94h10Z" transform="translate(-134.9 -141.76)"/><path class="cls-1" d="M316.91,216.51h-10V146.94h10Z" transform="translate(-134.9 -141.76)"/><path class="cls-1" d="M369.89,216.51h-9.11v-6.66A19.17,19.17,0,0,1,345,217.26a17.61,17.61,0,0,1-12.28-4.41c-3.25-2.93-4.87-6.86-4.87-11.76s1.73-8.58,5.18-11,8.13-3.66,14-3.66h13v-1.87q0-9.94-10.55-9.94-6.62,0-13.76,5.06l-4.46-6.56a29.82,29.82,0,0,1,19.65-7.22q8.4,0,13.72,4.45t5.31,14Zm-10-18.56v-4.22H348.63q-10.81,0-10.81,7.12a6.43,6.43,0,0,0,2.68,5.58q2.67,1.92,7.46,1.92a13.08,13.08,0,0,0,8.35-2.81A9.15,9.15,0,0,0,359.89,198Z" transform="translate(-134.9 -141.76)"/><path class="cls-1" d="M404.92,217.26a23.43,23.43,0,0,1-17.07-7.08q-7.14-7.08-7.15-18.52t7.46-18.61a25.29,25.29,0,0,1,18.19-7.17,24.09,24.09,0,0,1,18.14,7.78l-5.9,7.6q-6.16-5.64-12.42-5.63A15.26,15.26,0,0,0,395.31,180a14.8,14.8,0,0,0-4.6,11.25,16.25,16.25,0,0,0,4.56,11.67,14.87,14.87,0,0,0,11.21,4.79q6.66,0,12.55-6.38l5.9,6.75Q416.26,217.27,404.92,217.26Z" transform="translate(-134.9 -141.76)"/><path class="cls-2" d="M340.81,147l-5.62,12.64h-1.76L327.83,147h1.78l4.74,10.76L339.13,147Z" transform="translate(-134.9 -141.76)"/><path class="cls-2" d="M345.35,143.82A1.18,1.18,0,0,1,345,143a1.15,1.15,0,0,1,.36-.84,1.31,1.31,0,0,1,1.78,0,1.13,1.13,0,0,1,.36.83,1.23,1.23,0,0,1-1.25,1.25A1.21,1.21,0,0,1,345.35,143.82Zm0,3.13h1.7v12.64h-1.7Z" transform="translate(-134.9 -141.76)"/><path class="cls-2" d="M364.23,148.23a5.4,5.4,0,0,1,1.41,4v7.33h-1.71v-7.16a4.23,4.23,0,0,0-1-3,3.72,3.72,0,0,0-2.82-1,4.32,4.32,0,0,0-3.23,1.21,4.61,4.61,0,0,0-1.19,3.36v6.63H354V147h1.63v2.33a4.67,4.67,0,0,1,1.94-1.79,6.1,6.1,0,0,1,2.87-.64A5.16,5.16,0,0,1,364.23,148.23Z" transform="translate(-134.9 -141.76)"/><path class="cls-2" d="M372.88,159.26a6.14,6.14,0,0,1-2.19-1.11l.76-1.35a6.37,6.37,0,0,0,2,1,7.75,7.75,0,0,0,2.5.4,4.78,4.78,0,0,0,2.56-.54,1.73,1.73,0,0,0,.83-1.53,1.38,1.38,0,0,0-.46-1.09,2.86,2.86,0,0,0-1.15-.6,16.12,16.12,0,0,0-1.85-.4,20.92,20.92,0,0,1-2.48-.59,3.67,3.67,0,0,1-1.6-1,2.83,2.83,0,0,1-.66-2,3.13,3.13,0,0,1,1.32-2.6,6,6,0,0,1,3.68-1,9.38,9.38,0,0,1,2.45.33,6.64,6.64,0,0,1,2,.85l-.74,1.37a6.43,6.43,0,0,0-3.73-1.08,4.34,4.34,0,0,0-2.46.57,1.76,1.76,0,0,0-.83,1.52,1.47,1.47,0,0,0,.47,1.15,2.91,2.91,0,0,0,1.16.64q.7.2,1.92.42a20,20,0,0,1,2.43.58,3.55,3.55,0,0,1,1.56,1,2.69,2.69,0,0,1,.65,1.92,3.07,3.07,0,0,1-1.38,2.64,6.63,6.63,0,0,1-3.83,1A9.63,9.63,0,0,1,372.88,159.26Z" transform="translate(-134.9 -141.76)"/><path class="cls-2" d="M407.35,141.76v17.83h-1.63v-2.5a5.27,5.27,0,0,1-2,1.95,6.08,6.08,0,0,1-2.85.67,6.35,6.35,0,0,1-3.22-.82,5.76,5.76,0,0,1-2.26-2.28,7.21,7.21,0,0,1,0-6.68,5.68,5.68,0,0,1,2.26-2.27,6.44,6.44,0,0,1,3.22-.81,5.89,5.89,0,0,1,2.77.64,5.1,5.1,0,0,1,2,1.86v-7.59Zm-4,15.82a4.36,4.36,0,0,0,1.69-1.74,5.72,5.72,0,0,0,0-5.14,4.32,4.32,0,0,0-1.69-1.75,5,5,0,0,0-4.8,0,4.32,4.32,0,0,0-1.69,1.75,5.72,5.72,0,0,0,0,5.14,4.36,4.36,0,0,0,1.69,1.74,5,5,0,0,0,4.8,0Z" transform="translate(-134.9 -141.76)"/><path class="cls-2" d="M420.85,157.77a4.54,4.54,0,0,0,1.7-1.23l1,1.1a5.46,5.46,0,0,1-2.09,1.54,7.07,7.07,0,0,1-2.76.53,7.15,7.15,0,0,1-3.47-.83,6,6,0,0,1-2.35-2.3,6.52,6.52,0,0,1-.84-3.31,6.85,6.85,0,0,1,.8-3.32,5.76,5.76,0,0,1,2.23-2.28,6.27,6.27,0,0,1,3.22-.82,6.1,6.1,0,0,1,3,.77,5.83,5.83,0,0,1,2.16,2.14,6.32,6.32,0,0,1,.85,3.12l-10.38,2a4.49,4.49,0,0,0,1.74,2.42,5.19,5.19,0,0,0,3,.87A5.52,5.52,0,0,0,420.85,157.77Zm-5-8.84a4.26,4.26,0,0,0-1.63,1.71,5.12,5.12,0,0,0-.59,2.51,3.72,3.72,0,0,0,0,.53L422.6,152a4.4,4.4,0,0,0-1.47-2.61,4.25,4.25,0,0,0-2.88-1A4.6,4.6,0,0,0,415.88,148.93Z" transform="translate(-134.9 -141.76)"/><path class="cls-3" d="M182.4,184.17H193v22.52Q184.11,217,167.58,217a31.24,31.24,0,0,1-23.3-9.61q-9.37-9.61-9.38-24.31t9.56-24.51a31.13,31.13,0,0,1,23.12-9.8q13.56,0,22.54,8.3l-5.65,8.48a21.93,21.93,0,0,0-7.41-4.57,26.83,26.83,0,0,0-8.67-1.28,21.75,21.75,0,0,0-16,6.46q-6.47,6.45-6.47,17T152.23,200a20.6,20.6,0,0,0,15.22,6.36q8.94,0,15-4.05Z" transform="translate(-134.9 -141.76)"/><rect class="cls-3" x="33.62" y="42.42" width="23.78" height="10.6"/></g><g id="illustrations"><path class="cls-3" d="M297.19,245.75a14.28,14.28,0,0,0,14.28-14.28H282.91A14.28,14.28,0,0,0,297.19,245.75Z" transform="translate(-134.9 -141.76)"/><path class="cls-4" d="M329,245.75a14.28,14.28,0,0,0,14.28-14.28H314.69A14.27,14.27,0,0,0,329,245.75Z" transform="translate(-134.9 -141.76)"/><path class="cls-5" d="M360.74,245.75A14.28,14.28,0,0,0,375,231.47H346.46A14.28,14.28,0,0,0,360.74,245.75Z" transform="translate(-134.9 -141.76)"/><path class="cls-6" d="M392.51,245.75a14.28,14.28,0,0,0,14.28-14.28H378.24A14.27,14.27,0,0,0,392.51,245.75Z" transform="translate(-134.9 -141.76)"/><path class="cls-7" d="M345.81,262.21a14.28,14.28,0,0,0,14.28-14.28H331.54A14.27,14.27,0,0,0,345.81,262.21Z" transform="translate(-134.9 -141.76)"/><path class="cls-2" d="M377.59,262.21a14.28,14.28,0,0,0,14.28-14.28H363.31A14.28,14.28,0,0,0,377.59,262.21Z" transform="translate(-134.9 -141.76)"/><path class="cls-8" d="M329,278.54a14.27,14.27,0,0,0,14.28-14.27H314.69A14.27,14.27,0,0,0,329,278.54Z" transform="translate(-134.9 -141.76)"/></g></svg>